<svg width="1920" height="1080" viewBox="0 0 1920 1080" fill="none" xmlns="http://www.w3.org/2000/svg">
<g clip-path="url(#clip0_101_2)">
<rect width="1920" height="1080" fill="#67A2E7"/>
<path d="M21.257 10.962C21.731 11.582 21.731 12.419 21.257 13.038C19.764 14.987 16.182 19 12 19C7.81801 19 4.23601 14.987 2.74301 13.038C2.51239 12.7411 2.38721 12.3759 2.38721 12C2.38721 11.6241 2.51239 11.2589 2.74301 10.962C4.23601 9.013 7.81801 5 12 5C16.182 5 19.764 9.013 21.257 10.962V10.962Z" stroke="#67A2E7" stroke-width="2" stroke-linecap="round" stroke-linejoin="round"/>
<path d="M12 15C13.6569 15 15 13.6569 15 12C15 10.3431 13.6569 9 12 9C10.3431 9 9 10.3431 9 12C9 13.6569 10.3431 15 12 15Z" stroke="#67A2E7" stroke-width="2" stroke-linecap="round" stroke-linejoin="round"/>
<path d="M239.55 231.35V236.55H243.5C253.25 236.55 259.1 236.45 265.6 235.35L264.95 230.2C258.6 231.25 253.05 231.35 243.5 231.35H239.55ZM239.55 213.8V233.5H246.15V219.05H261.8V213.8H239.55ZM244.1 222.55V227.7H260.45V222.55H244.1ZM268.8 211.2V238.65H275.5V211.2H268.8ZM244.7 240.55V256.95H275.5V240.55H244.7ZM268.95 245.75V251.7H251.2V245.75H268.95ZM283.046 246.65V252.1H324.946V246.65H283.046ZM286.246 215.15V220.45H321.496V215.15H286.246ZM286.446 234.3V239.65H321.346V234.3H286.446ZM292.546 220.05V234.8H299.196V220.05H292.546ZM308.596 220.05V234.8H315.196V220.05H308.596ZM329.042 246.95V252.35H370.942V246.95H329.042ZM346.592 238.2V249.15H353.242V238.2H346.592ZM333.742 214.15V219.4H359.642V224.35H333.842V237.35H340.442V229.55H366.242V214.15H333.742ZM333.842 234.7V240.05H367.292V234.7H333.842ZM394.138 222.6V227.95H401.388V222.6H394.138ZM399.088 212.05V239.15H405.288V212.05H399.088ZM383.138 218.1V221.05C383.138 226.2 380.588 231.45 374.388 233.9L377.738 239.05C385.238 236.05 388.288 228.8 388.288 221.05V218.1H383.138ZM384.388 218.1V221.05C384.388 228.5 387.238 235.4 394.488 238.2L397.738 233.1C391.938 230.8 389.538 226 389.538 221.05V218.1H384.388ZM375.838 214.45V219.75H396.288V214.45H375.838ZM408.138 211.15V239.35H414.438V211.15H408.138ZM382.638 241.05V246.35H407.838V257.45H414.438V241.05H382.638ZM425.934 235V240.2H458.484V235H425.934ZM421.034 246.75V252.15H462.934V246.75H421.034ZM425.934 214.5V236.45H432.684V219.85H458.084V214.5H425.934ZM430.634 224.7V229.85H457.034V224.7H430.634ZM475.38 247.75C475.114 248.917 474.747 250.183 474.28 251.55C473.847 252.883 473.38 254.217 472.88 255.55C472.38 256.917 471.864 258.217 471.33 259.45H466.58C466.88 258.15 467.18 256.767 467.48 255.3C467.78 253.867 468.047 252.45 468.28 251.05C468.547 249.65 468.747 248.367 468.88 247.2H475.03L475.38 247.75Z" fill="white"/>
<path d="M238.69 368.66V378.38H314.11V368.66H238.69ZM270.28 350.84V371H282.25V350.84H270.28ZM246.61 309.98V353.36H305.92V309.98H294.04V322.76H258.49V309.98H246.61ZM258.49 332.12H294.04V343.82H258.49V332.12ZM374.673 304.58V388.19H386.733V304.58H374.673ZM384.033 335.45V345.26H398.793V335.45H384.033ZM324.633 358.22V368.12H331.653C346.143 368.12 357.573 367.76 370.173 365.51L369.003 355.61C356.763 357.77 345.693 358.22 331.653 358.22H324.633ZM324.633 312.32V362.99H336.513V321.95H363.513V312.32H324.633ZM449.019 343.64V357.86H460.899V343.64H449.019ZM438.579 356.24V387.11H495.639V356.24H483.759V363.08H450.459V356.24H438.579ZM450.459 372.08H483.759V377.75H450.459V372.08ZM483.669 304.67V352.73H495.639V304.67H483.669ZM427.689 349.22C442.719 349.22 462.069 349.04 479.979 345.89L479.259 337.43C461.709 339.68 441.639 339.77 426.339 339.77L427.689 349.22ZM448.029 306.83V310.07C448.029 317.54 442.359 324.65 429.129 327.44L434.259 336.44C450.099 333.02 457.569 322.67 457.569 310.07V306.83H448.029ZM450.819 306.83V310.07C450.819 322.13 458.469 331.94 474.039 335.18L478.989 326.09C466.209 323.75 460.449 317.09 460.449 310.07V306.83H450.819ZM516.692 311.69V321.32H569.522V311.69H516.692ZM509.042 368.3V378.02H584.372V368.3H509.042ZM535.682 339.68V373.07H547.652V339.68H535.682ZM565.202 311.69V319.7C565.202 329.69 565.202 341.75 561.872 358.31L573.842 359.66C577.172 341.84 577.172 330.14 577.172 319.7V311.69H565.202ZM667.267 304.67V364.34H679.327V304.67H667.267ZM675.907 327.89V337.7H690.397V327.89H675.907ZM644.047 310.88V316.82C644.047 330.05 633.517 341.21 613.087 346.79L618.127 356.33C642.967 349.13 656.827 333.56 656.827 310.88H644.047ZM616.687 310.88V320.51H650.527V310.88H616.687ZM625.417 377.03V386.57H682.117V377.03H625.417ZM625.417 358.31V381.26H637.477V358.31H625.417ZM754.29 304.67V366.05H766.26V304.67H754.29ZM698.58 310.61V320.15H742.59V310.61H698.58ZM697.68 356.15C710.91 356.15 728.82 355.79 744.3 353.18L743.67 344.45C728.64 346.16 709.92 346.34 696.51 346.34L697.68 356.15ZM705.15 318.98V347.51H716.67V318.98H705.15ZM724.5 318.98V347.51H735.93V318.98H724.5ZM744.21 319.25V328.79H760.77V319.25H744.21ZM744.21 335.99V345.62H760.77V335.99H744.21ZM711.18 377.03V386.57H768.15V377.03H711.18ZM711.18 361.55V384.23H723.24V361.55H711.18ZM832.763 304.67V388.01H844.643V304.67H832.763ZM841.943 337.16V347.15H856.703V337.16H841.943ZM778.943 317V326.54H827.453V317H778.943ZM803.333 331.22C791.183 331.22 782.183 339.5 782.183 351.11C782.183 362.72 791.183 371 803.333 371C815.483 371 824.483 362.72 824.483 351.11C824.483 339.5 815.483 331.22 803.333 331.22ZM803.333 340.94C809.003 340.94 813.053 344.72 813.053 351.11C813.053 357.5 809.003 361.28 803.333 361.28C797.663 361.28 793.613 357.5 793.613 351.11C793.613 344.72 797.663 340.94 803.333 340.94ZM797.303 306.02V320.6H809.273V306.02H797.303ZM922.486 304.67V388.01H933.916V304.67H922.486ZM889.456 336.62V346.07H907.276V336.62H889.456ZM904.936 306.47V384.32H916.096V306.47H904.936ZM886.756 314.48V316.91C886.756 337.07 880.006 350.93 861.016 362.36L867.766 370.73C891.166 357.14 898.276 338.24 898.276 314.48H886.756ZM865.696 314.48V324.02H890.536V314.48H865.696ZM258.67 440.81V450.17C258.67 464.3 251.92 479.69 237.97 485.9L244.72 495.35C260.38 488.24 268.21 469.43 268.21 450.17V440.81H258.67ZM261.37 440.81V450.17C261.37 468.71 269.11 486.44 284.95 493.28L291.43 483.83C277.48 478.07 270.82 463.67 270.82 450.17V440.81H261.37ZM241.3 435.68V445.49H288.01V435.68H241.3ZM295.75 427.67V511.01H307.81V427.67H295.75ZM343.083 470.42V488.69H355.053V470.42H343.083ZM379.623 427.67V490.76H391.593V427.67H379.623ZM331.563 500.03V509.57H393.393V500.03H331.563ZM331.563 484.82V502.55H343.533V484.82H331.563ZM322.563 474.02C337.593 474.02 357.123 473.57 374.853 470.6L374.133 462.05C356.673 464.3 336.333 464.48 321.123 464.48L322.563 474.02ZM363.873 476.09V484.28H382.233V476.09H363.873ZM347.943 430.55C335.703 430.55 327.153 436.58 327.153 445.4C327.153 454.31 335.703 460.25 347.943 460.25C360.093 460.25 368.643 454.31 368.643 445.4C368.643 436.58 360.093 430.55 347.943 430.55ZM347.943 439.28C353.433 439.28 357.303 441.35 357.303 445.4C357.303 449.45 353.433 451.52 347.943 451.52C342.363 451.52 338.493 449.45 338.493 445.4C338.493 441.35 342.363 439.28 347.943 439.28ZM457.646 427.67V511.01H469.526V427.67H457.646ZM466.826 460.16V470.15H481.586V460.16H466.826ZM403.826 440V449.54H452.336V440H403.826ZM428.216 454.22C416.066 454.22 407.066 462.5 407.066 474.11C407.066 485.72 416.066 494 428.216 494C440.366 494 449.366 485.72 449.366 474.11C449.366 462.5 440.366 454.22 428.216 454.22ZM428.216 463.94C433.886 463.94 437.936 467.72 437.936 474.11C437.936 480.5 433.886 484.28 428.216 484.28C422.546 484.28 418.496 480.5 418.496 474.11C418.496 467.72 422.546 463.94 428.216 463.94ZM422.186 429.02V443.6H434.156V429.02H422.186ZM494.719 434.69V444.32H547.549V434.69H494.719ZM487.069 491.3V501.02H562.399V491.3H487.069ZM513.709 462.68V496.07H525.679V462.68H513.709ZM543.229 434.69V442.7C543.229 452.69 543.229 464.75 539.899 481.31L551.869 482.66C555.199 464.84 555.199 453.14 555.199 442.7V434.69H543.229ZM242.29 556.7V566.33H277.93V556.7H242.29ZM252.55 576.14V597.02H264.43V576.14H252.55ZM273.25 556.7V561.92C273.25 567.68 273.25 574.88 271.45 585.14L283.06 586.4C285.04 576.05 285.04 567.77 285.04 561.92V556.7H273.25ZM293.14 550.67V613.04H305.2V550.67H293.14ZM300.43 576.05V585.86H315.1V576.05H300.43ZM249.58 623.03V632.57H307.81V623.03H249.58ZM249.58 607.46V626H261.55V607.46H249.58ZM238.51 601.88C252.82 601.88 272.17 601.52 289.36 598.28L288.64 589.82C271.9 592.16 251.83 592.43 237.43 592.43L238.51 601.88ZM378.813 550.58V634.19H390.783V550.58H378.813ZM325.893 605.03V614.75H333.273C348.483 614.75 360.723 614.3 374.223 611.87L373.053 602.24C359.823 604.49 348.033 605.03 333.273 605.03H325.893ZM325.803 557.69V567.23H352.893V580.46H325.893V608.63H338.043V589.91H365.133V557.69H325.803ZM457.646 550.67V634.01H469.526V550.67H457.646ZM466.826 583.16V593.15H481.586V583.16H466.826ZM403.826 563V572.54H452.336V563H403.826ZM428.216 577.22C416.066 577.22 407.066 585.5 407.066 597.11C407.066 608.72 416.066 617 428.216 617C440.366 617 449.366 608.72 449.366 597.11C449.366 585.5 440.366 577.22 428.216 577.22ZM428.216 586.94C433.886 586.94 437.936 590.72 437.936 597.11C437.936 603.5 433.886 607.28 428.216 607.28C422.546 607.28 418.496 603.5 418.496 597.11C418.496 590.72 422.546 586.94 428.216 586.94ZM422.186 552.02V566.6H434.156V552.02H422.186ZM519.829 578.66V588.38H533.599V578.66H519.829ZM502.009 557.87V571.91C502.009 586.04 497.689 600.89 485.449 608.45L492.649 617.45C505.969 609.26 511.189 590.81 511.189 571.91V557.87H502.009ZM504.619 557.87V571.37C504.619 589.37 508.759 607.37 521.989 615.56L528.469 606.2C517.129 598.82 513.619 584.96 513.619 571.37V557.87H504.619ZM547.189 550.67V634.01H558.619V550.67H547.189ZM530.269 551.93V630.23H541.429V551.93H530.269ZM586.422 592.97V616.37H598.302V592.97H586.422ZM616.662 592.97V616.37H628.632V592.97H616.662ZM569.862 614.66V624.38H645.282V614.66H569.862ZM607.482 554.72C589.482 554.72 576.342 563.54 576.342 577.13C576.342 590.72 589.482 599.45 607.482 599.45C625.392 599.45 638.622 590.72 638.622 577.13C638.622 563.54 625.392 554.72 607.482 554.72ZM607.482 564.08C619.092 564.08 626.832 568.85 626.832 577.13C626.832 585.32 619.092 590.18 607.482 590.18C595.872 590.18 588.132 585.32 588.132 577.13C588.132 568.85 595.872 564.08 607.482 564.08ZM653.915 620.24C653.915 617.72 654.575 615.95 655.895 614.93C657.275 613.85 658.925 613.31 660.845 613.31C662.765 613.31 664.385 613.82 665.705 614.84C667.085 615.86 667.775 617.66 667.775 620.24C667.775 622.7 667.085 624.47 665.705 625.55C664.385 626.63 662.765 627.17 660.845 627.17C658.925 627.17 657.275 626.63 655.895 625.55C654.575 624.47 653.915 622.7 653.915 620.24Z" fill="white"/>
<path d="M254.525 772.44H268.88V792.405C266.937 793.102 264.865 793.633 262.665 794C260.502 794.367 258.118 794.55 255.515 794.55C251.812 794.55 248.64 793.762 246 792.185C243.397 790.608 241.398 788.317 240.005 785.31C238.612 782.303 237.915 778.637 237.915 774.31C237.915 770.203 238.667 766.647 240.17 763.64C241.673 760.633 243.855 758.305 246.715 756.655C249.575 755.005 253.077 754.18 257.22 754.18C259.31 754.18 261.308 754.4 263.215 754.84C265.158 755.243 266.918 755.812 268.495 756.545L266.02 762.32C264.737 761.697 263.343 761.183 261.84 760.78C260.373 760.34 258.797 760.12 257.11 760.12C254.617 760.12 252.508 760.707 250.785 761.88C249.098 763.053 247.797 764.722 246.88 766.885C246 769.012 245.56 771.523 245.56 774.42C245.56 777.207 245.945 779.682 246.715 781.845C247.485 783.972 248.64 785.64 250.18 786.85C251.757 788.023 253.792 788.61 256.285 788.61C257.055 788.61 257.77 788.573 258.43 788.5C259.09 788.427 259.695 788.335 260.245 788.225C260.832 788.115 261.345 788.005 261.785 787.895V778.435H254.525V772.44ZM288.38 763.64C290.947 763.64 293.147 764.19 294.98 765.29C296.85 766.353 298.298 767.893 299.325 769.91C300.352 771.89 300.865 774.31 300.865 777.17V780.69H282.605C282.678 783.403 283.338 785.512 284.585 787.015C285.868 788.482 287.665 789.215 289.975 789.215C291.808 789.215 293.44 789.032 294.87 788.665C296.3 788.262 297.785 787.693 299.325 786.96V792.515C297.932 793.212 296.483 793.725 294.98 794.055C293.477 794.385 291.625 794.55 289.425 794.55C286.638 794.55 284.163 794 282 792.9C279.873 791.763 278.205 790.058 276.995 787.785C275.785 785.512 275.18 782.688 275.18 779.315C275.18 775.905 275.73 773.045 276.83 770.735C277.93 768.388 279.47 766.628 281.45 765.455C283.467 764.245 285.777 763.64 288.38 763.64ZM288.49 768.755C286.84 768.755 285.502 769.36 284.475 770.57C283.485 771.743 282.898 773.503 282.715 775.85H293.935C293.935 774.457 293.733 773.228 293.33 772.165C292.927 771.102 292.322 770.277 291.515 769.69C290.745 769.067 289.737 768.755 288.49 768.755ZM318.779 788.995C319.586 788.995 320.356 788.922 321.089 788.775C321.859 788.592 322.574 788.39 323.234 788.17V793.34C322.464 793.67 321.529 793.945 320.429 794.165C319.329 794.422 318.101 794.55 316.744 794.55C315.058 794.55 313.554 794.275 312.234 793.725C310.914 793.138 309.869 792.148 309.099 790.755C308.366 789.362 307.999 787.418 307.999 784.925V769.415H304.259V766.39L308.439 763.97L310.639 757.645H315.259V764.19H322.959V769.415H315.259V784.87C315.259 786.263 315.571 787.308 316.194 788.005C316.854 788.665 317.716 788.995 318.779 788.995ZM361.72 785.365C361.72 787.345 361.28 789.032 360.4 790.425C359.52 791.782 358.218 792.808 356.495 793.505C354.772 794.202 352.608 794.55 350.005 794.55C348.025 794.55 346.302 794.403 344.835 794.11C343.368 793.817 341.957 793.358 340.6 792.735V786.85C342.067 787.547 343.643 788.133 345.33 788.61C347.053 789.087 348.612 789.325 350.005 789.325C351.655 789.325 352.847 789.032 353.58 788.445C354.313 787.858 354.68 787.07 354.68 786.08C354.68 785.493 354.515 784.962 354.185 784.485C353.892 784.008 353.268 783.513 352.315 783C351.398 782.45 350.06 781.772 348.3 780.965C346.577 780.195 345.147 779.425 344.01 778.655C342.873 777.885 342.012 776.968 341.425 775.905C340.838 774.805 340.545 773.43 340.545 771.78C340.545 769.103 341.553 767.087 343.57 765.73C345.623 764.337 348.3 763.64 351.6 763.64C353.397 763.64 355.065 763.823 356.605 764.19C358.182 764.52 359.758 765.07 361.335 765.84L359.19 770.955C358.31 770.552 357.412 770.203 356.495 769.91C355.615 769.58 354.753 769.323 353.91 769.14C353.103 768.957 352.297 768.865 351.49 768.865C350.207 768.865 349.235 769.103 348.575 769.58C347.915 770.02 347.585 770.662 347.585 771.505C347.585 772.092 347.75 772.623 348.08 773.1C348.41 773.54 349.033 773.998 349.95 774.475C350.867 774.952 352.168 775.557 353.855 776.29C355.542 776.95 356.972 777.665 358.145 778.435C359.318 779.168 360.198 780.085 360.785 781.185C361.408 782.285 361.72 783.678 361.72 785.365ZM379.473 788.995C380.279 788.995 381.049 788.922 381.783 788.775C382.553 788.592 383.268 788.39 383.928 788.17V793.34C383.158 793.67 382.223 793.945 381.123 794.165C380.023 794.422 378.794 794.55 377.438 794.55C375.751 794.55 374.248 794.275 372.928 793.725C371.608 793.138 370.563 792.148 369.793 790.755C369.059 789.362 368.693 787.418 368.693 784.925V769.415H364.953V766.39L369.133 763.97L371.333 757.645H375.953V764.19H383.653V769.415H375.953V784.87C375.953 786.263 376.264 787.308 376.888 788.005C377.548 788.665 378.409 788.995 379.473 788.995ZM401.286 763.64C404.879 763.64 407.629 764.483 409.536 766.17C411.442 767.82 412.396 770.423 412.396 773.98V794H407.281L405.851 789.875H405.631C404.824 790.938 403.999 791.837 403.156 792.57C402.312 793.267 401.341 793.762 400.241 794.055C399.141 794.385 397.821 794.55 396.281 794.55C394.631 794.55 393.146 794.22 391.826 793.56C390.506 792.9 389.461 791.892 388.691 790.535C387.921 789.142 387.536 787.4 387.536 785.31C387.536 782.23 388.599 779.92 390.726 778.38C392.852 776.803 396.042 775.942 400.296 775.795L405.081 775.63V774.145C405.081 772.238 404.677 770.882 403.871 770.075C403.064 769.268 401.964 768.865 400.571 768.865C399.251 768.865 397.912 769.085 396.556 769.525C395.236 769.965 393.934 770.478 392.651 771.065L390.396 766.225C391.899 765.455 393.567 764.832 395.401 764.355C397.234 763.878 399.196 763.64 401.286 763.64ZM402.001 780.03C399.397 780.14 397.582 780.672 396.556 781.625C395.529 782.542 395.016 783.788 395.016 785.365C395.016 786.758 395.364 787.767 396.061 788.39C396.794 789.013 397.747 789.325 398.921 789.325C400.644 789.325 402.111 788.757 403.321 787.62C404.531 786.447 405.136 784.723 405.136 782.45V779.92L402.001 780.03ZM435.362 763.64C435.875 763.64 436.407 763.658 436.957 763.695C437.507 763.732 437.965 763.805 438.332 763.915L437.672 770.35C437.305 770.277 436.865 770.222 436.352 770.185C435.875 770.112 435.362 770.075 434.812 770.075C433.895 770.075 432.997 770.258 432.117 770.625C431.237 770.955 430.449 771.468 429.752 772.165C429.055 772.825 428.487 773.687 428.047 774.75C427.644 775.813 427.442 777.078 427.442 778.545V794H420.127V764.19H425.737L426.727 769.36H427.112C427.662 768.297 428.34 767.343 429.147 766.5C429.99 765.62 430.925 764.923 431.952 764.41C433.015 763.897 434.152 763.64 435.362 763.64ZM454.775 788.995C455.582 788.995 456.352 788.922 457.085 788.775C457.855 788.592 458.57 788.39 459.23 788.17V793.34C458.46 793.67 457.525 793.945 456.425 794.165C455.325 794.422 454.097 794.55 452.74 794.55C451.054 794.55 449.55 794.275 448.23 793.725C446.91 793.138 445.865 792.148 445.095 790.755C444.362 789.362 443.995 787.418 443.995 784.925V769.415H440.255V766.39L444.435 763.97L446.635 757.645H451.255V764.19H458.955V769.415H451.255V784.87C451.255 786.263 451.567 787.308 452.19 788.005C452.85 788.665 453.712 788.995 454.775 788.995ZM476.368 763.64C478.935 763.64 481.135 764.19 482.968 765.29C484.838 766.353 486.287 767.893 487.313 769.91C488.34 771.89 488.853 774.31 488.853 777.17V780.69H470.593C470.667 783.403 471.327 785.512 472.573 787.015C473.857 788.482 475.653 789.215 477.963 789.215C479.797 789.215 481.428 789.032 482.858 788.665C484.288 788.262 485.773 787.693 487.313 786.96V792.515C485.92 793.212 484.472 793.725 482.968 794.055C481.465 794.385 479.613 794.55 477.413 794.55C474.627 794.55 472.152 794 469.988 792.9C467.862 791.763 466.193 790.058 464.983 787.785C463.773 785.512 463.168 782.688 463.168 779.315C463.168 775.905 463.718 773.045 464.818 770.735C465.918 768.388 467.458 766.628 469.438 765.455C471.455 764.245 473.765 763.64 476.368 763.64ZM476.478 768.755C474.828 768.755 473.49 769.36 472.463 770.57C471.473 771.743 470.887 773.503 470.703 775.85H481.923C481.923 774.457 481.722 773.228 481.318 772.165C480.915 771.102 480.31 770.277 479.503 769.69C478.733 769.067 477.725 768.755 476.478 768.755ZM504.347 794.55C501.157 794.55 498.572 793.267 496.592 790.7C494.612 788.097 493.622 784.247 493.622 779.15C493.622 774.053 494.631 770.203 496.647 767.6C498.664 764.96 501.304 763.64 504.567 763.64C505.924 763.64 507.097 763.842 508.087 764.245C509.114 764.612 509.994 765.125 510.727 765.785C511.461 766.445 512.102 767.178 512.652 767.985H512.872C512.799 767.472 512.707 766.683 512.597 765.62C512.487 764.557 512.432 763.567 512.432 762.65V752.2H519.747V794H514.137L512.762 790.095H512.432C511.956 790.902 511.351 791.653 510.617 792.35C509.884 793.01 509.004 793.542 507.977 793.945C506.951 794.348 505.741 794.55 504.347 794.55ZM506.767 788.94C509.004 788.94 510.581 788.207 511.497 786.74C512.414 785.273 512.872 783.055 512.872 780.085V779.205C512.872 775.978 512.432 773.522 511.552 771.835C510.672 770.148 509.059 769.305 506.712 769.305C504.879 769.305 503.467 770.185 502.477 771.945C501.524 773.668 501.047 776.107 501.047 779.26C501.047 782.413 501.542 784.815 502.532 786.465C503.522 788.115 504.934 788.94 506.767 788.94ZM556.759 763.64C559.876 763.64 562.332 764.502 564.129 766.225C565.926 767.948 566.824 770.735 566.824 774.585V794H559.509V775.96C559.509 773.723 559.124 772.055 558.354 770.955C557.584 769.818 556.374 769.25 554.724 769.25C552.267 769.25 550.599 770.13 549.719 771.89C548.839 773.613 548.399 776.125 548.399 779.425V794H541.084V764.19H546.694L547.739 768.095H548.014C548.674 767.068 549.444 766.225 550.324 765.565C551.204 764.905 552.194 764.428 553.294 764.135C554.394 763.805 555.549 763.64 556.759 763.64ZM600.23 779.04C600.23 781.533 599.918 783.733 599.295 785.64C598.671 787.547 597.755 789.178 596.545 790.535C595.371 791.855 593.941 792.863 592.255 793.56C590.568 794.22 588.68 794.55 586.59 794.55C584.646 794.55 582.831 794.22 581.145 793.56C579.495 792.863 578.065 791.855 576.855 790.535C575.681 789.178 574.765 787.547 574.105 785.64C573.445 783.733 573.115 781.533 573.115 779.04C573.115 775.74 573.646 772.953 574.71 770.68C575.81 768.37 577.386 766.628 579.44 765.455C581.493 764.245 583.931 763.64 586.755 763.64C589.395 763.64 591.723 764.245 593.74 765.455C595.756 766.628 597.333 768.37 598.47 770.68C599.643 772.953 600.23 775.74 600.23 779.04ZM580.54 779.04C580.54 781.13 580.76 782.927 581.2 784.43C581.64 785.897 582.3 787.015 583.18 787.785C584.096 788.555 585.27 788.94 586.7 788.94C588.13 788.94 589.285 788.555 590.165 787.785C591.081 787.015 591.741 785.897 592.145 784.43C592.585 782.927 592.805 781.13 592.805 779.04C592.805 776.913 592.585 775.135 592.145 773.705C591.705 772.238 591.026 771.138 590.11 770.405C589.23 769.635 588.075 769.25 586.645 769.25C584.481 769.25 582.923 770.093 581.97 771.78C581.016 773.467 580.54 775.887 580.54 779.04ZM625.171 777.83C625.024 777.17 624.878 776.51 624.731 775.85C624.584 775.153 624.438 774.475 624.291 773.815C624.144 773.155 624.016 772.532 623.906 771.945C623.796 771.358 623.704 770.808 623.631 770.295H623.466C623.429 770.808 623.356 771.377 623.246 772C623.136 772.587 623.008 773.21 622.861 773.87C622.751 774.53 622.604 775.208 622.421 775.905C622.274 776.602 622.128 777.298 621.981 777.995L617.966 794H609.551L602.181 764.135H609.386L612.631 779.645C612.814 780.635 612.998 781.625 613.181 782.615C613.364 783.605 613.529 784.558 613.676 785.475C613.823 786.355 613.933 787.143 614.006 787.84H614.226C614.299 787.363 614.391 786.777 614.501 786.08C614.611 785.347 614.739 784.613 614.886 783.88C615.033 783.11 615.161 782.395 615.271 781.735C615.418 781.075 615.546 780.543 615.656 780.14L619.616 764.135H627.591L631.441 780.14C631.588 780.763 631.753 781.552 631.936 782.505C632.119 783.422 632.284 784.357 632.431 785.31C632.614 786.263 632.724 787.088 632.761 787.785H632.926C632.999 787.125 633.109 786.355 633.256 785.475C633.403 784.595 633.568 783.66 633.751 782.67C633.971 781.643 634.191 780.635 634.411 779.645L637.876 764.135H644.916L637.381 794H628.911L625.171 777.83Z" fill="white"/>
<path d="M722.523 770.677L701.863 752.745C701.704 752.608 701.502 752.531 701.288 752.531H696.448C696.044 752.531 695.858 753.034 696.164 753.297L715.316 769.922H683.313C683.072 769.922 682.875 770.119 682.875 770.359V773.641C682.875 773.881 683.072 774.078 683.313 774.078H715.31L696.159 790.703C695.852 790.971 696.038 791.469 696.443 791.469H701.447C701.551 791.469 701.655 791.43 701.731 791.359L722.523 773.323C722.713 773.159 722.865 772.955 722.969 772.727C723.073 772.499 723.126 772.251 723.126 772C723.126 771.749 723.073 771.501 722.969 771.273C722.865 771.045 722.713 770.841 722.523 770.677Z" fill="white"/>
<path d="M1289.45 174.3L1280.85 210H1273.25L1268.4 189.5C1268.3 189 1268.17 188.383 1268 187.65C1267.87 186.917 1267.72 186.167 1267.55 185.4C1267.38 184.6 1267.25 183.867 1267.15 183.2C1267.05 182.5 1266.97 181.983 1266.9 181.65C1266.87 181.983 1266.78 182.5 1266.65 183.2C1266.55 183.867 1266.42 184.6 1266.25 185.4C1266.12 186.167 1265.97 186.933 1265.8 187.7C1265.67 188.433 1265.53 189.067 1265.4 189.6L1260.6 210H1253L1244.4 174.3H1251.1L1255.5 194.65C1255.6 195.317 1255.73 196.05 1255.9 196.85C1256.07 197.617 1256.22 198.417 1256.35 199.25C1256.52 200.05 1256.67 200.85 1256.8 201.65C1256.93 202.417 1257.03 203.1 1257.1 203.7C1257.2 203.067 1257.32 202.367 1257.45 201.6C1257.58 200.8 1257.72 200 1257.85 199.2C1258.02 198.367 1258.18 197.567 1258.35 196.8C1258.52 196.033 1258.67 195.367 1258.8 194.8L1263.7 174.3H1270.1L1275.05 194.95C1275.18 195.517 1275.33 196.183 1275.5 196.95C1275.67 197.683 1275.82 198.467 1275.95 199.3C1276.12 200.1 1276.27 200.883 1276.4 201.65C1276.53 202.417 1276.65 203.1 1276.75 203.7C1276.85 202.867 1276.98 201.917 1277.15 200.85C1277.35 199.783 1277.57 198.7 1277.8 197.6C1278.03 196.5 1278.23 195.517 1278.4 194.65L1282.8 174.3H1289.45ZM1303.22 182.4C1305.55 182.4 1307.55 182.9 1309.22 183.9C1310.92 184.867 1312.24 186.267 1313.17 188.1C1314.1 189.9 1314.57 192.1 1314.57 194.7V197.9H1297.97C1298.04 200.367 1298.64 202.283 1299.77 203.65C1300.94 204.983 1302.57 205.65 1304.67 205.65C1306.34 205.65 1307.82 205.483 1309.12 205.15C1310.42 204.783 1311.77 204.267 1313.17 203.6V208.65C1311.9 209.283 1310.59 209.75 1309.22 210.05C1307.85 210.35 1306.17 210.5 1304.17 210.5C1301.64 210.5 1299.39 210 1297.42 209C1295.49 207.967 1293.97 206.417 1292.87 204.35C1291.77 202.283 1291.22 199.717 1291.22 196.65C1291.22 193.55 1291.72 190.95 1292.72 188.85C1293.72 186.717 1295.12 185.117 1296.92 184.05C1298.75 182.95 1300.85 182.4 1303.22 182.4ZM1303.32 187.05C1301.82 187.05 1300.6 187.6 1299.67 188.7C1298.77 189.767 1298.24 191.367 1298.07 193.5H1308.27C1308.27 192.233 1308.09 191.117 1307.72 190.15C1307.35 189.183 1306.8 188.433 1306.07 187.9C1305.37 187.333 1304.45 187.05 1303.32 187.05ZM1326.91 210H1320.26V172H1326.91V210ZM1344.92 210.5C1342.42 210.5 1340.26 210.017 1338.42 209.05C1336.62 208.05 1335.22 206.533 1334.22 204.5C1333.26 202.433 1332.77 199.8 1332.77 196.6C1332.77 193.267 1333.31 190.567 1334.37 188.5C1335.47 186.4 1336.97 184.867 1338.87 183.9C1340.81 182.9 1342.99 182.4 1345.42 182.4C1346.96 182.4 1348.39 182.567 1349.72 182.9C1351.09 183.233 1352.22 183.633 1353.12 184.1L1351.12 188.95C1350.22 188.583 1349.32 188.267 1348.42 188C1347.52 187.733 1346.62 187.6 1345.72 187.6C1344.36 187.6 1343.22 187.933 1342.32 188.6C1341.42 189.267 1340.72 190.267 1340.22 191.6C1339.76 192.9 1339.52 194.55 1339.52 196.55C1339.52 198.483 1339.76 200.1 1340.22 201.4C1340.72 202.7 1341.42 203.683 1342.32 204.35C1343.22 204.983 1344.32 205.3 1345.62 205.3C1346.92 205.3 1348.12 205.117 1349.22 204.75C1350.36 204.383 1351.42 203.883 1352.42 203.25V208.7C1351.39 209.333 1350.29 209.783 1349.12 210.05C1347.96 210.35 1346.56 210.5 1344.92 210.5ZM1381.45 196.4C1381.45 198.667 1381.16 200.667 1380.6 202.4C1380.03 204.133 1379.2 205.617 1378.1 206.85C1377.03 208.05 1375.73 208.967 1374.2 209.6C1372.66 210.2 1370.95 210.5 1369.05 210.5C1367.28 210.5 1365.63 210.2 1364.1 209.6C1362.6 208.967 1361.3 208.05 1360.2 206.85C1359.13 205.617 1358.3 204.133 1357.7 202.4C1357.1 200.667 1356.8 198.667 1356.8 196.4C1356.8 193.4 1357.28 190.867 1358.25 188.8C1359.25 186.7 1360.68 185.117 1362.55 184.05C1364.41 182.95 1366.63 182.4 1369.2 182.4C1371.6 182.4 1373.71 182.95 1375.55 184.05C1377.38 185.117 1378.81 186.7 1379.85 188.8C1380.91 190.867 1381.45 193.4 1381.45 196.4ZM1363.55 196.4C1363.55 198.3 1363.75 199.933 1364.15 201.3C1364.55 202.633 1365.15 203.65 1365.95 204.35C1366.78 205.05 1367.85 205.4 1369.15 205.4C1370.45 205.4 1371.5 205.05 1372.3 204.35C1373.13 203.65 1373.73 202.633 1374.1 201.3C1374.5 199.933 1374.7 198.3 1374.7 196.4C1374.7 194.467 1374.5 192.85 1374.1 191.55C1373.7 190.217 1373.08 189.217 1372.25 188.55C1371.45 187.85 1370.4 187.5 1369.1 187.5C1367.13 187.5 1365.71 188.267 1364.85 189.8C1363.98 191.333 1363.55 193.533 1363.55 196.4ZM1417 182.4C1419.93 182.4 1422.13 183.183 1423.6 184.75C1425.07 186.317 1425.8 188.85 1425.8 192.35V210H1419.25V193.55C1419.25 191.55 1418.92 190.05 1418.25 189.05C1417.58 188.017 1416.55 187.5 1415.15 187.5C1413.22 187.5 1411.85 188.217 1411.05 189.65C1410.25 191.083 1409.85 193.167 1409.85 195.9V210H1403.25V193.55C1403.25 192.217 1403.1 191.1 1402.8 190.2C1402.5 189.3 1402.05 188.633 1401.45 188.2C1400.85 187.733 1400.08 187.5 1399.15 187.5C1397.82 187.5 1396.77 187.867 1396 188.6C1395.23 189.3 1394.68 190.333 1394.35 191.7C1394.05 193.067 1393.9 194.75 1393.9 196.75V210H1387.25V182.9H1392.35L1393.3 186.45H1393.6C1394.1 185.517 1394.72 184.75 1395.45 184.15C1396.22 183.55 1397.08 183.117 1398.05 182.85C1399.05 182.55 1400.08 182.4 1401.15 182.4C1403.05 182.4 1404.63 182.75 1405.9 183.45C1407.2 184.117 1408.2 185.167 1408.9 186.6H1409.25C1410.08 185.133 1411.18 184.067 1412.55 183.4C1413.95 182.733 1415.43 182.4 1417 182.4ZM1443.55 182.4C1445.89 182.4 1447.89 182.9 1449.55 183.9C1451.25 184.867 1452.57 186.267 1453.5 188.1C1454.44 189.9 1454.9 192.1 1454.9 194.7V197.9H1438.3C1438.37 200.367 1438.97 202.283 1440.1 203.65C1441.27 204.983 1442.9 205.65 1445 205.65C1446.67 205.65 1448.15 205.483 1449.45 205.15C1450.75 204.783 1452.1 204.267 1453.5 203.6V208.65C1452.24 209.283 1450.92 209.75 1449.55 210.05C1448.19 210.35 1446.5 210.5 1444.5 210.5C1441.97 210.5 1439.72 210 1437.75 209C1435.82 207.967 1434.3 206.417 1433.2 204.35C1432.1 202.283 1431.55 199.717 1431.55 196.65C1431.55 193.55 1432.05 190.95 1433.05 188.85C1434.05 186.717 1435.45 185.117 1437.25 184.05C1439.09 182.95 1441.19 182.4 1443.55 182.4ZM1443.65 187.05C1442.15 187.05 1440.94 187.6 1440 188.7C1439.1 189.767 1438.57 191.367 1438.4 193.5H1448.6C1448.6 192.233 1448.42 191.117 1448.05 190.15C1447.69 189.183 1447.14 188.433 1446.4 187.9C1445.7 187.333 1444.79 187.05 1443.65 187.05ZM1260.9 278H1254.15V247.7H1244.85V242.3H1270.15V247.7H1260.9V278ZM1294.58 264.4C1294.58 266.667 1294.3 268.667 1293.73 270.4C1293.16 272.133 1292.33 273.617 1291.23 274.85C1290.16 276.05 1288.86 276.967 1287.33 277.6C1285.8 278.2 1284.08 278.5 1282.18 278.5C1280.41 278.5 1278.76 278.2 1277.23 277.6C1275.73 276.967 1274.43 276.05 1273.33 274.85C1272.26 273.617 1271.43 272.133 1270.83 270.4C1270.23 268.667 1269.93 266.667 1269.93 264.4C1269.93 261.4 1270.41 258.867 1271.38 256.8C1272.38 254.7 1273.81 253.117 1275.68 252.05C1277.55 250.95 1279.76 250.4 1282.33 250.4C1284.73 250.4 1286.85 250.95 1288.68 252.05C1290.51 253.117 1291.95 254.7 1292.98 256.8C1294.05 258.867 1294.58 261.4 1294.58 264.4ZM1276.68 264.4C1276.68 266.3 1276.88 267.933 1277.28 269.3C1277.68 270.633 1278.28 271.65 1279.08 272.35C1279.91 273.05 1280.98 273.4 1282.28 273.4C1283.58 273.4 1284.63 273.05 1285.43 272.35C1286.26 271.65 1286.86 270.633 1287.23 269.3C1287.63 267.933 1287.83 266.3 1287.83 264.4C1287.83 262.467 1287.63 260.85 1287.23 259.55C1286.83 258.217 1286.21 257.217 1285.38 256.55C1284.58 255.85 1283.53 255.5 1282.23 255.5C1280.26 255.5 1278.85 256.267 1277.98 257.8C1277.11 259.333 1276.68 261.533 1276.68 264.4ZM1267.45 346H1248.2V310.3H1267.45V315.65H1254.9V324.75H1266.65V330.1H1254.9V340.6H1267.45V346ZM1284.57 318.4C1287.84 318.4 1290.34 319.167 1292.07 320.7C1293.81 322.2 1294.67 324.567 1294.67 327.8V346H1290.02L1288.72 342.25H1288.52C1287.79 343.217 1287.04 344.033 1286.27 344.7C1285.51 345.333 1284.62 345.783 1283.62 346.05C1282.62 346.35 1281.42 346.5 1280.02 346.5C1278.52 346.5 1277.17 346.2 1275.97 345.6C1274.77 345 1273.82 344.083 1273.12 342.85C1272.42 341.583 1272.07 340 1272.07 338.1C1272.07 335.3 1273.04 333.2 1274.97 331.8C1276.91 330.367 1279.81 329.583 1283.67 329.45L1288.02 329.3V327.95C1288.02 326.217 1287.66 324.983 1286.92 324.25C1286.19 323.517 1285.19 323.15 1283.92 323.15C1282.72 323.15 1281.51 323.35 1280.27 323.75C1279.07 324.15 1277.89 324.617 1276.72 325.15L1274.67 320.75C1276.04 320.05 1277.56 319.483 1279.22 319.05C1280.89 318.617 1282.67 318.4 1284.57 318.4ZM1285.22 333.3C1282.86 333.4 1281.21 333.883 1280.27 334.75C1279.34 335.583 1278.87 336.717 1278.87 338.15C1278.87 339.417 1279.19 340.333 1279.82 340.9C1280.49 341.467 1281.36 341.75 1282.42 341.75C1283.99 341.75 1285.32 341.233 1286.42 340.2C1287.52 339.133 1288.07 337.567 1288.07 335.5V333.2L1285.22 333.3ZM1319.55 338.15C1319.55 339.95 1319.15 341.483 1318.35 342.75C1317.55 343.983 1316.37 344.917 1314.8 345.55C1313.23 346.183 1311.27 346.5 1308.9 346.5C1307.1 346.5 1305.53 346.367 1304.2 346.1C1302.87 345.833 1301.58 345.417 1300.35 344.85V339.5C1301.68 340.133 1303.12 340.667 1304.65 341.1C1306.22 341.533 1307.63 341.75 1308.9 341.75C1310.4 341.75 1311.48 341.483 1312.15 340.95C1312.82 340.417 1313.15 339.7 1313.15 338.8C1313.15 338.267 1313 337.783 1312.7 337.35C1312.43 336.917 1311.87 336.467 1311 336C1310.17 335.5 1308.95 334.883 1307.35 334.15C1305.78 333.45 1304.48 332.75 1303.45 332.05C1302.42 331.35 1301.63 330.517 1301.1 329.55C1300.57 328.55 1300.3 327.3 1300.3 325.8C1300.3 323.367 1301.22 321.533 1303.05 320.3C1304.92 319.033 1307.35 318.4 1310.35 318.4C1311.98 318.4 1313.5 318.567 1314.9 318.9C1316.33 319.2 1317.77 319.7 1319.2 320.4L1317.25 325.05C1316.45 324.683 1315.63 324.367 1314.8 324.1C1314 323.8 1313.22 323.567 1312.45 323.4C1311.72 323.233 1310.98 323.15 1310.25 323.15C1309.08 323.15 1308.2 323.367 1307.6 323.8C1307 324.2 1306.7 324.783 1306.7 325.55C1306.7 326.083 1306.85 326.567 1307.15 327C1307.45 327.4 1308.02 327.817 1308.85 328.25C1309.68 328.683 1310.87 329.233 1312.4 329.9C1313.93 330.5 1315.23 331.15 1316.3 331.85C1317.37 332.517 1318.17 333.35 1318.7 334.35C1319.27 335.35 1319.55 336.617 1319.55 338.15ZM1321.49 318.9H1328.59L1333.44 334.2C1333.67 334.833 1333.86 335.467 1333.99 336.1C1334.16 336.733 1334.29 337.367 1334.39 338C1334.52 338.633 1334.62 339.267 1334.69 339.9H1334.84C1334.97 339.067 1335.14 338.15 1335.34 337.15C1335.57 336.15 1335.84 335.167 1336.14 334.2L1340.89 318.9H1347.89L1337.14 349.55C1336.51 351.35 1335.71 352.883 1334.74 354.15C1333.81 355.417 1332.66 356.367 1331.29 357C1329.96 357.667 1328.36 358 1326.49 358C1325.72 358 1325.04 357.95 1324.44 357.85C1323.87 357.783 1323.37 357.7 1322.94 357.6V352.6C1323.27 352.667 1323.69 352.733 1324.19 352.8C1324.69 352.867 1325.21 352.9 1325.74 352.9C1326.71 352.9 1327.52 352.683 1328.19 352.25C1328.89 351.85 1329.47 351.283 1329.94 350.55C1330.41 349.85 1330.76 349.033 1330.99 348.1L1331.69 345.9L1321.49 318.9ZM1289.45 378.3L1280.85 414H1273.25L1268.4 393.5C1268.3 393 1268.17 392.383 1268 391.65C1267.87 390.917 1267.72 390.167 1267.55 389.4C1267.38 388.6 1267.25 387.867 1267.15 387.2C1267.05 386.5 1266.97 385.983 1266.9 385.65C1266.87 385.983 1266.78 386.5 1266.65 387.2C1266.55 387.867 1266.42 388.6 1266.25 389.4C1266.12 390.167 1265.97 390.933 1265.8 391.7C1265.67 392.433 1265.53 393.067 1265.4 393.6L1260.6 414H1253L1244.4 378.3H1251.1L1255.5 398.65C1255.6 399.317 1255.73 400.05 1255.9 400.85C1256.07 401.617 1256.22 402.417 1256.35 403.25C1256.52 404.05 1256.67 404.85 1256.8 405.65C1256.93 406.417 1257.03 407.1 1257.1 407.7C1257.2 407.067 1257.32 406.367 1257.45 405.6C1257.58 404.8 1257.72 404 1257.85 403.2C1258.02 402.367 1258.18 401.567 1258.35 400.8C1258.52 400.033 1258.67 399.367 1258.8 398.8L1263.7 378.3H1270.1L1275.05 398.95C1275.18 399.517 1275.33 400.183 1275.5 400.95C1275.67 401.683 1275.82 402.467 1275.95 403.3C1276.12 404.1 1276.27 404.883 1276.4 405.65C1276.53 406.417 1276.65 407.1 1276.75 407.7C1276.85 406.867 1276.98 405.917 1277.15 404.85C1277.35 403.783 1277.57 402.7 1277.8 401.6C1278.03 400.5 1278.23 399.517 1278.4 398.65L1282.8 378.3H1289.45ZM1315.87 400.4C1315.87 402.667 1315.59 404.667 1315.02 406.4C1314.45 408.133 1313.62 409.617 1312.52 410.85C1311.45 412.05 1310.15 412.967 1308.62 413.6C1307.09 414.2 1305.37 414.5 1303.47 414.5C1301.7 414.5 1300.05 414.2 1298.52 413.6C1297.02 412.967 1295.72 412.05 1294.62 410.85C1293.55 409.617 1292.72 408.133 1292.12 406.4C1291.52 404.667 1291.22 402.667 1291.22 400.4C1291.22 397.4 1291.7 394.867 1292.67 392.8C1293.67 390.7 1295.1 389.117 1296.97 388.05C1298.84 386.95 1301.05 386.4 1303.62 386.4C1306.02 386.4 1308.14 386.95 1309.97 388.05C1311.8 389.117 1313.24 390.7 1314.27 392.8C1315.34 394.867 1315.87 397.4 1315.87 400.4ZM1297.97 400.4C1297.97 402.3 1298.17 403.933 1298.57 405.3C1298.97 406.633 1299.57 407.65 1300.37 408.35C1301.2 409.05 1302.27 409.4 1303.57 409.4C1304.87 409.4 1305.92 409.05 1306.72 408.35C1307.55 407.65 1308.15 406.633 1308.52 405.3C1308.92 403.933 1309.12 402.3 1309.12 400.4C1309.12 398.467 1308.92 396.85 1308.52 395.55C1308.12 394.217 1307.5 393.217 1306.67 392.55C1305.87 391.85 1304.82 391.5 1303.52 391.5C1301.55 391.5 1300.14 392.267 1299.27 393.8C1298.4 395.333 1297.97 397.533 1297.97 400.4ZM1335.52 386.4C1335.99 386.4 1336.47 386.417 1336.97 386.45C1337.47 386.483 1337.89 386.55 1338.22 386.65L1337.62 392.5C1337.29 392.433 1336.89 392.383 1336.42 392.35C1335.99 392.283 1335.52 392.25 1335.02 392.25C1334.19 392.25 1333.37 392.417 1332.57 392.75C1331.77 393.05 1331.06 393.517 1330.42 394.15C1329.79 394.75 1329.27 395.533 1328.87 396.5C1328.51 397.467 1328.32 398.617 1328.32 399.95V414H1321.67V386.9H1326.77L1327.67 391.6H1328.02C1328.52 390.633 1329.14 389.767 1329.87 389C1330.64 388.2 1331.49 387.567 1332.42 387.1C1333.39 386.633 1334.42 386.4 1335.52 386.4ZM1349.17 394.05C1349.17 394.917 1349.14 395.833 1349.07 396.8C1349 397.733 1348.92 398.65 1348.82 399.55H1349.02C1349.19 399.15 1349.44 398.717 1349.77 398.25C1350.1 397.75 1350.45 397.267 1350.82 396.8C1351.22 396.3 1351.6 395.85 1351.97 395.45L1359.02 386.9H1366.52L1356.67 398.6L1367.12 414H1359.47L1352.12 402.4L1349.17 405V414H1342.57V376H1349.17V394.05ZM1258.5 446.3C1262.83 446.3 1266.02 447.267 1268.05 449.2C1270.08 451.133 1271.1 453.8 1271.1 457.2C1271.1 458.733 1270.88 460.2 1270.45 461.6C1270.02 462.967 1269.28 464.2 1268.25 465.3C1267.25 466.4 1265.92 467.267 1264.25 467.9C1262.58 468.533 1260.53 468.85 1258.1 468.85H1254.9V482H1248.2V446.3H1258.5ZM1258.25 451.6H1254.9V463.55H1257.4C1258.87 463.55 1260.12 463.35 1261.15 462.95C1262.18 462.517 1262.97 461.85 1263.5 460.95C1264.07 460.05 1264.35 458.883 1264.35 457.45C1264.35 455.483 1263.85 454.017 1262.85 453.05C1261.85 452.083 1260.32 451.6 1258.25 451.6ZM1283.5 482H1276.85V444H1283.5V482ZM1301.57 454.4C1304.83 454.4 1307.33 455.167 1309.07 456.7C1310.8 458.2 1311.67 460.567 1311.67 463.8V482H1307.02L1305.72 478.25H1305.52C1304.78 479.217 1304.03 480.033 1303.27 480.7C1302.5 481.333 1301.62 481.783 1300.62 482.05C1299.62 482.35 1298.42 482.5 1297.02 482.5C1295.52 482.5 1294.17 482.2 1292.97 481.6C1291.77 481 1290.82 480.083 1290.12 478.85C1289.42 477.583 1289.07 476 1289.07 474.1C1289.07 471.3 1290.03 469.2 1291.97 467.8C1293.9 466.367 1296.8 465.583 1300.67 465.45L1305.02 465.3V463.95C1305.02 462.217 1304.65 460.983 1303.92 460.25C1303.18 459.517 1302.18 459.15 1300.92 459.15C1299.72 459.15 1298.5 459.35 1297.27 459.75C1296.07 460.15 1294.88 460.617 1293.72 461.15L1291.67 456.75C1293.03 456.05 1294.55 455.483 1296.22 455.05C1297.88 454.617 1299.67 454.4 1301.57 454.4ZM1302.22 469.3C1299.85 469.4 1298.2 469.883 1297.27 470.75C1296.33 471.583 1295.87 472.717 1295.87 474.15C1295.87 475.417 1296.18 476.333 1296.82 476.9C1297.48 477.467 1298.35 477.75 1299.42 477.75C1300.98 477.75 1302.32 477.233 1303.42 476.2C1304.52 475.133 1305.07 473.567 1305.07 471.5V469.2L1302.22 469.3ZM1329.49 482.5C1326.99 482.5 1324.83 482.017 1322.99 481.05C1321.19 480.05 1319.79 478.533 1318.79 476.5C1317.83 474.433 1317.34 471.8 1317.34 468.6C1317.34 465.267 1317.88 462.567 1318.94 460.5C1320.04 458.4 1321.54 456.867 1323.44 455.9C1325.38 454.9 1327.56 454.4 1329.99 454.4C1331.53 454.4 1332.96 454.567 1334.29 454.9C1335.66 455.233 1336.79 455.633 1337.69 456.1L1335.69 460.95C1334.79 460.583 1333.89 460.267 1332.99 460C1332.09 459.733 1331.19 459.6 1330.29 459.6C1328.93 459.6 1327.79 459.933 1326.89 460.6C1325.99 461.267 1325.29 462.267 1324.79 463.6C1324.33 464.9 1324.09 466.55 1324.09 468.55C1324.09 470.483 1324.33 472.1 1324.79 473.4C1325.29 474.7 1325.99 475.683 1326.89 476.35C1327.79 476.983 1328.89 477.3 1330.19 477.3C1331.49 477.3 1332.69 477.117 1333.79 476.75C1334.93 476.383 1335.99 475.883 1336.99 475.25V480.7C1335.96 481.333 1334.86 481.783 1333.69 482.05C1332.53 482.35 1331.13 482.5 1329.49 482.5ZM1353.37 454.4C1355.7 454.4 1357.7 454.9 1359.37 455.9C1361.07 456.867 1362.38 458.267 1363.32 460.1C1364.25 461.9 1364.72 464.1 1364.72 466.7V469.9H1348.12C1348.18 472.367 1348.78 474.283 1349.92 475.65C1351.08 476.983 1352.72 477.65 1354.82 477.65C1356.48 477.65 1357.97 477.483 1359.27 477.15C1360.57 476.783 1361.92 476.267 1363.32 475.6V480.65C1362.05 481.283 1360.73 481.75 1359.37 482.05C1358 482.35 1356.32 482.5 1354.32 482.5C1351.78 482.5 1349.53 482 1347.57 481C1345.63 479.967 1344.12 478.417 1343.02 476.35C1341.92 474.283 1341.37 471.717 1341.37 468.65C1341.37 465.55 1341.87 462.95 1342.87 460.85C1343.87 458.717 1345.27 457.117 1347.07 456.05C1348.9 454.95 1351 454.4 1353.37 454.4ZM1353.47 459.05C1351.97 459.05 1350.75 459.6 1349.82 460.7C1348.92 461.767 1348.38 463.367 1348.22 465.5H1358.42C1358.42 464.233 1358.23 463.117 1357.87 462.15C1357.5 461.183 1356.95 460.433 1356.22 459.9C1355.52 459.333 1354.6 459.05 1353.47 459.05ZM1376.15 470.85H1370.75L1369.7 446.3H1377.25L1376.15 470.85ZM1369.55 478.8C1369.55 477.4 1369.92 476.417 1370.65 475.85C1371.42 475.25 1372.34 474.95 1373.4 474.95C1374.47 474.95 1375.37 475.233 1376.1 475.8C1376.87 476.367 1377.25 477.367 1377.25 478.8C1377.25 480.167 1376.87 481.15 1376.1 481.75C1375.37 482.35 1374.47 482.65 1373.4 482.65C1372.34 482.65 1371.42 482.35 1370.65 481.75C1369.92 481.15 1369.55 480.167 1369.55 478.8Z" fill="white"/>
<path d="M1380.45 844.503L1383.88 799.648L1394.55 797.849M1421.38 837.609L1403.45 796.351L1394.55 797.849" stroke="white" stroke-width="10" stroke-linecap="round" stroke-linejoin="round"/>
<path d="M1384.17 801.386L1374.83 773.124L1370.12 759.358M1403.74 798.089L1402.42 768.478L1402.83 753.848" stroke="white" stroke-width="10" stroke-linecap="round"/>
<path d="M1384.61 743.7C1389.63 742.855 1393.02 738.101 1392.17 733.083C1391.32 728.065 1386.57 724.682 1381.55 725.527C1376.53 726.372 1373.15 731.126 1374 736.144C1374.84 741.163 1379.6 744.546 1384.61 743.7Z" fill="white" stroke="white" stroke-width="10"/>
<path d="M1338.88 738.944L1338.35 757.493L1367.97 759.536" stroke="white" stroke-width="10" stroke-linecap="round" stroke-linejoin="round"/>
<path d="M1367.97 759.536L1405.53 753.21" stroke="white" stroke-width="10"/>
<path d="M1424.45 724.532L1431.03 741.882L1403.71 753.516" stroke="white" stroke-width="10" stroke-linecap="round" stroke-linejoin="round"/>
<path d="M1445.49 828.585C1445.49 836.326 1450.45 842.58 1456.59 842.58C1462.73 842.58 1467.7 836.326 1467.7 828.585H1445.49ZM1456.59 660.644L1465.82 652.859C1463.12 647.742 1458.05 645.424 1453.37 647.217C1448.68 649.01 1445.49 654.477 1445.49 660.644H1456.59ZM1523.21 761.354L1513.97 794.384C1516.02 798.277 1519.49 800.595 1523.2 800.595C1526.91 800.595 1530.38 798.277 1532.43 794.384L1523.21 761.354ZM1589.81 660.644H1600.91C1600.91 654.477 1597.72 649.054 1593.04 647.261C1588.35 645.468 1583.29 647.742 1580.58 652.903L1589.81 660.644ZM1578.71 828.585C1578.71 836.326 1583.67 842.58 1589.81 842.58C1595.95 842.58 1600.91 836.326 1600.91 828.585H1578.71ZM1467.7 828.585V660.644H1445.49V828.585H1467.7ZM1447.37 668.428L1513.97 794.384L1532.46 778.858L1465.86 652.903L1447.37 668.428ZM1532.46 794.384L1599.07 668.428L1580.58 652.859L1513.97 778.815L1532.46 794.34V794.384ZM1578.71 660.644V828.585H1600.91V660.644H1578.71Z" fill="white"/>
<path d="M1258.89 603C1249.48 603 1244 607.508 1244 617.436C1244 627.364 1249.48 633.33 1258.89 633.33H1326.95V830.773C1326.95 840.701 1334.55 848.722 1343.96 848.722C1353.37 848.722 1360.97 840.701 1360.97 830.773L1349.81 752.805L1360.97 633.33H1429.02C1438.44 633.33 1443.65 627.364 1443.65 617.436C1443.65 607.508 1438.44 603 1429.02 603H1343.29H1258.89Z" fill="white"/>
<path d="M1687.79 793.51C1687.62 792.554 1687.04 791.974 1686.06 791.77L1673.23 789.095L1678.08 765.834C1678.2 765.217 1678.11 764.669 1677.79 764.189C1677.47 763.709 1677 763.404 1676.38 763.274L1663.54 760.599C1662.92 760.469 1662.36 760.56 1661.88 760.873C1661.4 761.186 1661.09 761.651 1660.96 762.268L1656.12 785.529L1643.28 782.854C1642.66 782.724 1642.1 782.815 1641.62 783.128C1641.13 783.441 1640.83 783.906 1640.7 784.523C1640.59 785.052 1640.7 785.627 1641.04 786.248L1657.97 811.773C1658.38 812.271 1658.85 812.576 1659.38 812.688C1659.92 812.799 1660.47 812.708 1661.05 812.414L1686.84 795.725C1687.66 795.16 1687.98 794.421 1687.79 793.51ZM1657.18 823.261C1650.58 821.887 1644.84 819.011 1639.94 814.634C1635.03 810.257 1631.53 804.976 1629.43 798.791C1627.32 792.606 1626.95 786.254 1628.31 779.733C1629.66 773.213 1632.54 767.539 1636.95 762.71C1641.35 757.881 1646.67 754.439 1652.91 752.384C1659.15 750.329 1665.57 749.989 1672.16 751.363C1678.76 752.738 1684.51 755.613 1689.41 759.99C1694.31 764.367 1697.81 769.648 1699.92 775.833C1702.02 782.018 1702.4 788.371 1701.04 794.891C1699.68 801.411 1696.8 807.085 1692.4 811.914C1688 816.743 1682.68 820.185 1676.44 822.24C1670.19 824.295 1663.78 824.636 1657.18 823.261ZM1716.01 798.011C1717.93 788.804 1717.41 779.834 1714.44 771.102C1711.47 762.369 1706.52 754.915 1699.6 748.738C1692.68 742.561 1684.56 738.502 1675.25 736.561C1665.93 734.619 1656.87 735.098 1648.06 737.997C1639.25 740.895 1631.74 745.754 1625.53 752.573C1619.31 759.392 1615.25 767.405 1613.33 776.613C1611.41 785.82 1611.94 794.79 1614.91 803.523C1617.88 812.255 1622.82 819.71 1629.74 825.887C1636.66 832.063 1644.78 836.122 1654.1 838.064C1663.41 840.005 1672.47 839.526 1681.28 836.628C1690.1 833.729 1697.61 828.87 1703.82 822.051C1710.03 815.232 1714.09 807.219 1716.01 798.011Z" fill="white"/>
</g>
<defs>
<clipPath id="clip0_101_2">
<rect width="1920" height="1080" fill="white"/>
</clipPath>
</defs>
</svg>
